<svg xmlns="http://www.w3.org/2000/svg" viewBox="0 0 512 512" style="height: 512px; width: 512px;"><defs><linearGradient id="lorc-mining-gradient-2"><stop offset="0%" stop-color="#1f0e1c" stop-opacity="1"></stop><stop offset="100%" stop-color="#8c8fae" stop-opacity="1"></stop></linearGradient><linearGradient x1="0" x2="1" y1="0" y2="1" id="lorc-mining-gradient-3"><stop offset="0%" stop-color="#584563" stop-opacity="1"></stop><stop offset="100%" stop-color="#1f0e1c" stop-opacity="1"></stop></linearGradient><linearGradient x1="0" x2="0" y1="0" y2="1" id="lorc-mining-gradient-5"><stop offset="0%" stop-color="#9a6348" stop-opacity="1"></stop><stop offset="100%" stop-color="#1f0e1c" stop-opacity="1"></stop></linearGradient><linearGradient x1="0" x2="0" y1="0" y2="1" id="lorc-mining-gradient-6"><stop offset="0%" stop-color="#e4943a" stop-opacity="1"></stop><stop offset="100%" stop-color="#9d303b" stop-opacity="1"></stop></linearGradient><linearGradient id="lorc-mining-gradient-7"><stop offset="0%" stop-color="#e4943a" stop-opacity="1"></stop><stop offset="100%" stop-color="#9d303b" stop-opacity="1"></stop></linearGradient></defs><g class="" transform="translate(0,0)" style=""><g><path d="M113.844 17.72C105.418 17.76 97.032 18.553 88.75 20.156C195.65 84.503 275.473 170.516 338.47 270C340.996 216.24 319.4 160.87 284.937 115.75C270.84 121.048 253.46 116.492 241.469 104.5C229.489 92.52 224.911 75.153 230.187 61.062C194.46 34.105 153.68 17.52 113.844 17.72Z" class="" fill="url(#lorc-mining-gradient-2)" stroke="#1f0e1c" stroke-opacity="1" stroke-width="4"></path><path d="M494.406 38.125L423.47 115.75L453.53 241.313L398.438 250.093L379.031 330.719L452.531 369.843L411.281 425.78L440.939 469.813L352.157 442.188L368.657 398.344L291.97 364.5L305.094 279.937L193.719 338.062L189.499 416.312L77.279 388.656L44.029 492.812L494.405 492.812L494.405 38.125Z" class="" fill="url(#lorc-mining-gradient-3)" stroke="#1f0e1c" stroke-opacity="1" stroke-width="4"></path><path d="M261.156 58.72C260.768 58.73 260.38 58.748 260 58.78C256.356 59.105 253.118 60.476 250.812 62.78C244.665 68.93 245.066 81.66 254.687 91.28C264.309 100.903 277.04 101.304 283.187 95.156C289.335 89.008 288.934 76.278 279.312 66.656C273.675 61.019 266.977 58.56 261.156 58.719Z" class="" fill="#9a6348" fill-opacity="1" stroke="#1f0e1c" stroke-opacity="1" stroke-width="4"></path><path d="M196.5 127.593L25.28 298.874C29.553 310.8 36.307 319.924 50.53 324.5L221.97 153C214.174 144.11 205.662 135.667 196.5 127.594Z" class="" fill="url(#lorc-mining-gradient-5)" stroke="#1f0e1c" stroke-opacity="1" stroke-width="4"></path><path d="M355.28 139.218L364.594 223.904L392.031 139.217L355.281 139.217Z" class="" fill="url(#lorc-mining-gradient-6)" stroke="#1f0e1c" stroke-opacity="1" stroke-width="4"></path><path d="M223.25 214.186L203.094 250.123L295.781 257.498L223.251 214.185Z" class="selected" fill="url(#lorc-mining-gradient-7)" stroke="#1f0e1c" stroke-opacity="1" stroke-width="4"></path></g></g></svg>